<svg xmlns="http://www.w3.org/2000/svg" viewBox="0 0 24 24" fill="#fff"><path d="M20.52 3.48A11.9 11.9 0 0 0 12 0C5.373 0 .01 5.373 0 12c0 2.115.554 4.178 1.605 5.995L0 24l6.245-1.643A11.943 11.943 0 0 0 12 24c6.627 0 12-5.373 12-12 0-3.196-1.247-6.193-3.48-8.52zM12 21.6c-1.66 0-3.274-.396-4.71-1.145l-.337-.191-3.68.969.986-3.59-.202-.36A9.6 9.6 0 0 1 2.4 12c0-5.304 4.296-9.6 9.6-9.6 2.56 0 4.96.998 6.72 2.76 1.76 1.76 2.76 4.16 2.76 6.72 0 5.304-4.296 9.6-9.6 9.6z"/><path d="M17.28 14.64c-.24-.12-1.44-.72-1.66-.8-.22-.08-.38-.12-.54.12-.16.24-.64.8-.78.96-.14.16-.28.18-.52.06-.24-.12-1.02-.38-1.94-1.2-.72-.64-1.2-1.44-1.34-1.68-.14-.24-.02-.36.1-.48.1-.1.24-.28.36-.42.12-.14.16-.24.24-.4.08-.16.04-.3-.02-.42-.06-.12-.54-1.3-.74-1.78-.2-.48-.4-.42-.54-.42-.14 0-.3-.02-.46-.02-.16 0-.42.06-.64.3-.22.24-.86.84-.86 2.04s.88 2.36 1 2.52c.12.16 1.72 2.64 4.16 3.7 2.44 1.06 2.44.7 2.88.66.44-.04 1.44-.56 1.64-1.1.2-.54.2-1 .14-1.12-.06-.12-.22-.18-.46-.3z"/></svg>